<?xml version="1.0" encoding="UTF-8" standalone="no"?>
<!-- Generator: Adobe Illustrator 22.0.1, SVG Export Plug-In . SVG Version: 6.00 Build 0)  -->

<svg
   xmlns:dc="http://purl.org/dc/elements/1.1/"
   xmlns:cc="http://creativecommons.org/ns#"
   xmlns:rdf="http://www.w3.org/1999/02/22-rdf-syntax-ns#"
   xmlns:svg="http://www.w3.org/2000/svg"
   xmlns="http://www.w3.org/2000/svg"
   xmlns:sodipodi="http://sodipodi.sourceforge.net/DTD/sodipodi-0.dtd"
   xmlns:inkscape="http://www.inkscape.org/namespaces/inkscape"
   version="1.1"
   id="Ebene_1"
   x="0px"
   y="0px"
   viewBox="0 0 90.7 90.7"
   style="enable-background:new 0 0 90.7 90.7;"
   xml:space="preserve"
   sodipodi:docname="Montur.svg"
   inkscape:version="0.92.5 (2060ec1f9f, 2020-04-08)"><metadata
   id="metadata85"><rdf:RDF><cc:Work
       rdf:about=""><dc:format>image/svg+xml</dc:format><dc:type
         rdf:resource="http://purl.org/dc/dcmitype/StillImage" /></cc:Work></rdf:RDF></metadata><defs
   id="defs83" /><sodipodi:namedview
   pagecolor="#ffffff"
   bordercolor="#666666"
   borderopacity="1"
   objecttolerance="10"
   gridtolerance="10"
   guidetolerance="10"
   inkscape:pageopacity="0"
   inkscape:pageshadow="2"
   inkscape:window-width="1920"
   inkscape:window-height="1016"
   id="namedview81"
   showgrid="false"
   inkscape:zoom="9.128997"
   inkscape:cx="41.443456"
   inkscape:cy="54.21247"
   inkscape:window-x="0"
   inkscape:window-y="0"
   inkscape:window-maximized="1"
   inkscape:current-layer="Ebene_1" />
<style
   type="text/css"
   id="style66">
	.st0{fill:#1D1D1B;}
	.st1{fill:#36BDA1;}
</style>
<g
   id="g78">
	<g
   id="g72">
		<path
   class="st0"
   d="M72.9,38.9l-5.1-0.5l-0.2,2l4.2,0.4v9.4l-4.2,0.4c-0.4,0-0.8,0.3-0.9,0.7c-0.5,2-1.3,3.9-2.4,5.7    c-0.2,0.4-0.2,0.8,0.1,1.1l2.6,3.3L60.5,68l-3.3-2.6c-0.3-0.3-0.8-0.3-1.1-0.1c-1.8,1-3.7,1.8-5.7,2.4c-0.4,0.1-0.7,0.4-0.7,0.9    l-0.4,4.2h-9.4l-0.4-4.2c0-0.4-0.3-0.8-0.7-0.9c-2-0.5-3.9-1.3-5.7-2.4c-0.4-0.2-0.8-0.2-1.1,0.1L28.7,68L22,61.4l2.6-3.3    c0.3-0.3,0.3-0.8,0.1-1.1c-1-1.8-1.8-3.7-2.4-5.7c-0.1-0.4-0.4-0.7-0.9-0.7l-4.2-0.4v-9.4l4.2-0.4c0.4,0,0.8-0.3,0.9-0.7    c0.5-2,1.3-3.9,2.4-5.7c0.2-0.4,0.2-0.8-0.1-1.1L22,29.5l6.6-6.6l3.3,2.6c0.3,0.3,0.8,0.3,1.1,0.1c1.8-1,3.7-1.8,5.7-2.4    c0.4-0.1,0.7-0.4,0.7-0.9l0.4-4.2h9.4l0.4,4.2c0,0.4,0.3,0.8,0.7,0.9c2,0.5,3.9,1.3,5.7,2.4l1-1.7c-1.7-1-3.6-1.8-5.5-2.4    l-0.5-4.4c-0.1-0.5-0.5-0.9-1-0.9H39c-0.5,0-0.9,0.4-1,0.9l-0.5,4.4c-1.7,0.5-3.3,1.2-4.9,2l-3.4-2.8c-0.4-0.3-1-0.3-1.3,0.1    L20,28.7c-0.4,0.4-0.4,0.9-0.1,1.3l2.8,3.4c-0.9,1.6-1.5,3.2-2,4.9l-4.4,0.5c-0.5,0.1-0.9,0.5-0.9,1V51c0,0.5,0.4,0.9,0.9,1    l4.4,0.5c0.5,1.7,1.2,3.3,2,4.9l-2.8,3.4c-0.3,0.4-0.3,1,0.1,1.3l7.9,7.9c0.4,0.4,0.9,0.4,1.3,0.1l3.4-2.8c1.6,0.9,3.2,1.5,4.9,2    l0.5,4.4c0.1,0.5,0.5,0.9,1,0.9h11.2c0.5,0,0.9-0.4,1-0.9l0.5-4.4c1.7-0.5,3.3-1.2,4.9-2l3.4,2.8c0.4,0.3,1,0.3,1.3-0.1l7.9-7.9    c0.4-0.4,0.4-0.9,0.1-1.3l-2.8-3.4c0.9-1.6,1.5-3.2,2-4.9l4.4-0.5c0.5-0.1,0.9-0.5,0.9-1V39.9C73.8,39.4,73.4,38.9,72.9,38.9z"
   id="path68" />
		<path
   class="st0"
   d="M44.6,61.5c-8.8,0-16-7.2-16-16s7.2-16,16-16c2.3,0,4.5,0.5,6.5,1.4l0.8-1.8c-2.3-1-4.8-1.6-7.3-1.6    c-9.9,0-18,8.1-18,18s8.1,18,18,18s18-8.1,18-18h-2C60.6,54.3,53.4,61.5,44.6,61.5z"
   id="path70" />
	</g>
	<g
   id="g76">
		<path
   class="st1"
   d="M44.6,56.6c-0.3,0-0.5-0.1-0.7-0.3L31.6,44c-0.2-0.2-0.3-0.4-0.3-0.7s0.1-0.5,0.3-0.7l6.2-6.2    c0.4-0.4,1-0.4,1.4,0l5.4,5.4L67.5,19c0.4-0.4,1-0.4,1.4,0l6.2,6.2c0.2,0.2,0.3,0.4,0.3,0.7s-0.1,0.5-0.3,0.7L45.3,56.3    C45.1,56.5,44.9,56.6,44.6,56.6z M33.7,43.3l10.9,10.9l28.3-28.3l-4.7-4.7L45.3,44c-0.4,0.4-1,0.4-1.4,0l-5.4-5.4L33.7,43.3z"
   id="path74" />
	</g>
</g>
<path
   style="fill:#68c902;fill-opacity:1;stroke-width:0.10954106"
   d="M 44.140619,56.528771 C 43.957088,56.43819 40.987155,53.541485 37.540771,50.091649 L 31.274617,43.819218 V 43.33458 42.849942 l 3.258846,-3.274705 c 1.792366,-1.801088 3.416693,-3.343084 3.609616,-3.426656 0.261962,-0.11348 0.428362,-0.123087 0.657246,-0.03795 0.168563,0.0627 1.53926,1.3441 3.045993,2.847547 L 44.585834,41.69172 56.160635,30.18971 67.735436,18.6877 h 0.471754 0.471755 l 3.370359,3.370359 3.37036,3.370359 v 0.483824 0.483823 l -15.073799,15.01427 c -8.29059,8.257845 -15.204,15.073658 -15.363133,15.146251 -0.37516,0.171136 -0.443586,0.168875 -0.842113,-0.02782 z M 70.490681,23.563291 68.190846,21.263456 56.658959,32.791884 45.127071,44.320313 h -0.485845 -0.485844 l -2.817843,-2.810216 -2.817844,-2.810216 -2.358173,2.289896 -2.358173,2.289895 5.389966,5.395026 5.389966,5.395025 14.103618,-14.103298 14.103616,-14.1033 z"
   id="path1980"
   inkscape:connector-curvature="0" /></svg>